# xmcd
#
# Track frame offsets:
#	150
#	20177
#	37432
#	60080
#	80920
#	100415
#	119263
#	137098
#	158430
#	178164
#	194529
#	215349
#	229799
#	246431
#	264047
#
# Disc length: 3780 seconds
#
# Revision: 3
# Processed by: cddbd v1.5.2PL0 Copyright (c) Steve Scherf et al.
# Submitted via: audiograbber 1.83.01
#
DISCID=d60ec20f
DTITLE=Various Artist - SC7596
DYEAR=2002
DGENRE=Karaoke
TTITLE0=Travis Tritt - Lord Have Mercy On The Working Man
TTITLE1=Toby Keith - How Do You Like Me Now?
TTITLE2=Dixie Chicks, The - Cowboy Take Me Away
TTITLE3=Alan Jackson - Gone Country
TTITLE4=Reba McEntire - Is There Life Out There
TTITLE5=John Michael Montgomery - I Love The Way You Love Me
TTITLE6=Brooks and Dunn - Rock My World (Little Country Girl)
TTITLE7=Shania Twain - If You're Not In It For Love, I'm Outta Here
TTITLE8=John Berry - Your Love Amazes Me
TTITLE9=Chely Wright - Single White Female
TTITLE10=Deana Carter - Strawbery Wine
TTITLE11=Dixie Chicks, The - Let 'Er Rip
TTITLE12=Martina McBride - Independence Day
TTITLE13=Garth Brooks - Thunder Rolls, The
TTITLE14=Shania Twain - Whos Bed Have Your Boots Been Under
EXTD=
EXTT0=
EXTT1=
EXTT2=
EXTT3=
EXTT4=
EXTT5=
EXTT6=
EXTT7=
EXTT8=
EXTT9=
EXTT10=
EXTT11=
EXTT12=
EXTT13=
EXTT14=
PLAYORDER=
